<svg id="Layer_1" data-name="Layer 1" xmlns="http://www.w3.org/2000/svg" xmlns:xlink="http://www.w3.org/1999/xlink" viewBox="0 0 823.68 223.29"><defs><style>.cls-1{fill:#fff;}.cls-2,.cls-4{fill:#303030;}.cls-2{fill-rule:evenodd;}.cls-3{fill:url(#linear-gradient);}.cls-5{fill:#4d4d4d;}.cls-6{fill:#252525;}</style><linearGradient id="linear-gradient" x1="-1553.65" y1="326.54" x2="-1553.65" y2="321.15" gradientTransform="matrix(12.5, 0, 0, -12.5, 20498.44, 4504.74)" gradientUnits="userSpaceOnUse"><stop offset="0.19" stop-color="#fff"/><stop offset="0.21" stop-color="#f8f8f8"/><stop offset="0.37" stop-color="#aeaeae"/><stop offset="0.51" stop-color="#707070"/><stop offset="0.65" stop-color="#404040"/><stop offset="0.76" stop-color="#1d1d1d"/><stop offset="0.86" stop-color="#080808"/><stop offset="0.92"/></linearGradient></defs><path class="cls-1" d="M954.26,425.64H940.63a.55.55,0,0,0-.36.13l-18.91,16.28a.56.56,0,0,0-.19.39.58.58,0,0,0,.17.41L935,456.24a.55.55,0,0,0,.38.15h0a.58.58,0,0,0,.36-.12L954.62,440a.53.53,0,0,0,.19-.41V426.19A.55.55,0,0,0,954.26,425.64Zm-.54,13.73L935.38,455.1l-12.85-12.62h0l18.31-15.75h12.88v12.64Z" transform="translate(-692.31 -421.71)"/><path class="cls-1" d="M939.92,437.07h0a5.15,5.15,0,0,0-4.33.53L935,437a.55.55,0,0,0-.77,0,.56.56,0,0,0,0,.78l.47.47-.25.24h0l-.31.36-.49-.49a.55.55,0,0,0-.77,0,.56.56,0,0,0,0,.78l.66.66a4.8,4.8,0,0,0-.21,4.22,4.28,4.28,0,0,0,4,2.58c.22,0,.43,0,.64,0a.55.55,0,1,0-.14-1.09,3.23,3.23,0,0,1-3.52-1.89h0a3.57,3.57,0,0,1,0-2.95l2.83,2.83a.55.55,0,0,0,.78-.77l-3-3.05a4,4,0,0,1,.33-.39c.07-.08.15-.15.22-.22l3.59,3.58a.52.52,0,0,0,.38.16.55.55,0,0,0,.39-.93l-3.45-3.45a4,4,0,0,1,3.16-.3,3.27,3.27,0,0,1,2.08,3.46.55.55,0,0,0,1.1.11,4.33,4.33,0,0,0-2.79-4.6Z" transform="translate(-692.31 -421.71)"/><path class="cls-1" d="M953.9,443.18l-18.52,15.89-13.27-13.26a.55.55,0,0,0-.77,0,.54.54,0,0,0,0,.78L935,460.2a.52.52,0,0,0,.38.16h0a.58.58,0,0,0,.36-.12L954.62,444a.54.54,0,0,0,.06-.77A.55.55,0,0,0,953.9,443.18Z" transform="translate(-692.31 -421.71)"/><path class="cls-1" d="M948.58,435.06a3.22,3.22,0,1,0-3.16-3.21A3.22,3.22,0,0,0,948.58,435.06Zm0-5.33a2.12,2.12,0,0,1,0,4.24,2.12,2.12,0,0,1,0-4.24Z" transform="translate(-692.31 -421.71)"/><path class="cls-1" d="M1320.46,564.25c0,4,4.49,7.35,10,7.35s10-3.3,10-7.35-4.48-7.35-10-7.35S1320.46,560.19,1320.46,564.25Zm14.92,0c0,2-2.21,3.61-4.92,3.61s-4.91-1.62-4.91-3.61,2.2-3.62,4.91-3.62S1335.38,562.25,1335.38,564.25Z" transform="translate(-692.31 -421.71)"/><path class="cls-1" d="M1304.27,543.38h31.38l25.27,18.53v18.83H1366V560.36l-28.24-20.71h-35.59l-64.29,47.1,0,0L1222.64,598l63.87,47,19.6-13.8-61-44.44Zm-5.44,87.77-12.24,8.62L1229.83,598l11.68-8.56Z" transform="translate(-692.31 -421.71)"/><path class="cls-2" d="M1437.5,494.57c-5.84-3.66-10.15-16.3-10.15-31.32,0-.55,0-1.1,0-1.64h0c-16.27-2.56-28-9.56-28.32-17.84l0,.09a26.61,26.61,0,0,0-6.25,16.76c0,17.93,19.68,32.62,44.65,33.92Zm-52.27-32.63c0-20.06,25-36.33,55.77-36.33s55.76,16.27,55.76,36.33-25,36.33-55.76,36.33S1385.23,482,1385.23,461.94ZM1441,430.85c5.94,0,11,9,12.88,21.61v0c11.57-1.8,19.67-6,19.67-10.79,0-6.49-14.58-11.74-32.55-11.74s-32.55,5.25-32.55,11.74c0,4.83,8.1,9,19.66,10.79v0C1430,439.87,1435.05,430.85,1441,430.85Zm3.6,63.7c25-1.3,44.64-16,44.64-33.92a26.61,26.61,0,0,0-6.25-16.76l0-.1c-.3,8.29-12.06,15.29-28.32,17.84h0c0,.54,0,1.08,0,1.63,0,15-4.31,27.66-10.15,31.33Zm-3.6-41.16q3.87,0,7.73-.33h0c-1.23-8.06-4.23-13.76-7.73-13.76s-6.49,5.7-7.73,13.76h0Q1437.13,453.39,1441,453.39Zm0,29.88c4.47,0,8.13-9.32,8.32-21h0a91.22,91.22,0,0,1-16.69,0h0C1432.87,474,1436.52,483.27,1441,483.27Z" transform="translate(-692.31 -421.71)"/><path class="cls-2" d="M1454.16,509.86a13.27,13.27,0,1,0,13.27,13.26A13.25,13.25,0,0,0,1454.16,509.86Zm0,21.67c-4.09,0-7.42-3.77-7.42-8.41s3.32-8.41,7.42-8.41,7.4,3.77,7.4,8.41S1458.25,531.53,1454.16,531.53Z" transform="translate(-692.31 -421.71)"/><polygon class="cls-2" points="790.18 93.67 790.18 114.08 784.59 114.08 784.59 93.67 784.61 93.67 776.79 93.67 776.79 89.06 797.98 89.06 797.98 93.67 790.18 93.67"/><path class="cls-2" d="M1505.66,510.77h-7l-10.33,25h6.54l2.13-5.63h10.26l2.15,5.63H1516Zm-7,15.17,3.5-9.16h0l3.49,9.16Z" transform="translate(-692.31 -421.71)"/><polygon class="cls-2" points="687.1 93.67 687.1 114.08 681.51 114.08 681.51 93.67 681.53 93.67 673.71 93.67 673.71 89.06 694.9 89.06 694.9 93.67 687.1 93.67"/><path class="cls-2" d="M1401.91,509.86a13.27,13.27,0,1,0,13.28,13.26A13.26,13.26,0,0,0,1401.91,509.86Zm0,21.67c-4.09,0-7.41-3.77-7.41-8.41s3.32-8.41,7.41-8.41,7.42,3.77,7.42,8.41S1406,531.53,1401.91,531.53Z" transform="translate(-692.31 -421.71)"/><polygon class="cls-2" points="735.73 114.08 738.56 114.08 738.56 104.58 748.32 89.06 741.79 89.06 735.73 99.58 729.67 89.06 723.14 89.06 732.89 104.58 732.89 114.08 735.73 114.08"/><path class="cls-3" d="M1122.88,453.1a29.23,29.23,0,0,0-4-.63c-8.68-.36-30.12-1.19-41.05-1.19s-32.37.83-41,1.19a29,29,0,0,0-4,.63c-2.73.64-3.33,1.62-3.33,3.57v13.4c0,1.95,2.1,3.27,3.54,3.53a36.65,36.65,0,0,0,3.88.52c7.76.48,25.76,1.49,40.95,1.5s33.19-1,41-1.5a36.65,36.65,0,0,0,3.88-.52c1.44-.26,3.54-1.58,3.54-3.53v-13.4c0-1.95-.6-2.93-3.33-3.57Z" transform="translate(-692.31 -421.71)"/><path class="cls-4" d="M1043,453.62a36.6,36.6,0,0,1,69.87-.12.93.93,0,0,1,0,.13,43.38,43.38,0,0,0,6.26-1.12c0-.1,0-.12-.06-.21-4.9-17.62-21.47-30.59-41.16-30.59s-36.36,13.05-41.2,30.76a38.37,38.37,0,0,0,6.25,1.15Z" transform="translate(-692.31 -421.71)"/><path class="cls-4" d="M1112.81,473.09l-.11.35a36.62,36.62,0,0,1-69.52-.33c-2.7.47-3.62.66-6.29,1,4.95,17.54,21.48,30.42,41.1,30.42s36.17-12.89,41.12-30.44c-2.36-.3-3.75-.52-6.3-1Z" transform="translate(-692.31 -421.71)"/><path class="cls-4" d="M1043.91,453.59a26.66,26.66,0,0,1,3.57-1.54,32.93,32.93,0,0,1,61-.11l0,.12c.8.28,3.16,1.24,3.89,1.56h.56s0-.08,0-.13c-4.31-14.79-18.31-25.62-34.92-25.62s-30.68,10.89-35,25.74l.87,0Z" transform="translate(-692.31 -421.71)"/><path class="cls-1" d="M1077.73,428.88a36,36,0,0,1,34.62,24.61l0,.13h.56a.65.65,0,0,1,0-.13c-4.31-14.79-18.31-25.62-34.92-25.62s-30.68,10.89-35,25.74c.33,0,.49,0,.87,0a35.69,35.69,0,0,1,33.82-24.71Z" transform="translate(-692.31 -421.71)"/><path class="cls-4" d="M1111.93,473.13a20.71,20.71,0,0,1-3.63,1.58s-.08.2-.09.23a32.94,32.94,0,0,1-60.52-.21,28.14,28.14,0,0,1-3.92-1.59l-.59,0a36.61,36.61,0,0,0,69.56.2l.07-.22c-.26,0-.65,0-.88,0Z" transform="translate(-692.31 -421.71)"/><path class="cls-4" d="M1122.1,454.07c-2.3-.28-3.86-.25-9.46-.45l-.78,0c-10.15-.35-25.4-.82-34-.82s-23.87.47-34,.82l-.78,0c-5.6.2-7.16.17-9.46.45s-4.11,1.29-4.11,3v12.42c0,1.71,2.18,3.1,4.11,3.1,0,0,24.54,1.51,44.26,1.53s44.26-1.53,44.26-1.53c1.93,0,4.11-1.39,4.11-3.1V457.07c0-1.71-1.81-2.72-4.11-3Z" transform="translate(-692.31 -421.71)"/><path class="cls-1" d="M1111.93,473.13a36.08,36.08,0,0,1-68.17,0l-.58,0a36.62,36.62,0,0,0,69.64,0l-.89,0Z" transform="translate(-692.31 -421.71)"/><path class="cls-5" d="M1112,473.13h0a20.71,20.71,0,0,1-3.63,1.58s-.08.2-.09.23a31.64,31.64,0,0,1-6.49,9.86A34.92,34.92,0,0,0,1112,473.13Z" transform="translate(-692.31 -421.71)"/><path class="cls-5" d="M1055.2,485.72a31.53,31.53,0,0,1-7.51-11,26.87,26.87,0,0,1-3.92-1.6,29.64,29.64,0,0,0,2.73,4.6,35.65,35.65,0,0,0,7.66,7.34c.34.23.69.44,1,.65Z" transform="translate(-692.31 -421.71)"/><path class="cls-6" d="M1043.18,473.11h0c-2.7.48-3.61.66-6.28,1,.21.77.45,1.52.71,2.27Z" transform="translate(-692.31 -421.71)"/><path class="cls-1" d="M1097.49,459.57c-.8-1.81-.52-1.62-2.27-1.66a5,5,0,0,0-1-.05,6.64,6.64,0,0,0-1,.05c-1.66,0-1.38-.1-2,1.09,0,0-2.84,6.4-4.08,9.06l0,.09c-.24.48-.1.48.28.48h2.56a.34.34,0,0,0,.33-.19s.38-.81.86-1.95h6.26c.48,1.09.81,1.9.81,1.95a.32.32,0,0,0,.33.19h2.66c.38,0,.47.05.33-.29-.47-1.13-3.56-7.78-4-8.77Zm-5.45,4.65c.8-1.9,1.61-3.75,1.61-3.8a.3.3,0,0,1,.29-.14s.19,0,.33,0,.24,0,.28,0a.25.25,0,0,1,.24.19c.19.52.9,2.13,1.57,3.75Zm-34.17-6.46c.24,0,.29.1.29.29V468.2c0,.24-.05.34-.33.34h-2.47c-.28,0-.33-.05-.33-.34V458.05c0-.19,0-.29.23-.29Zm-5.26.1c.28,0,.33.09.33.33V468.3c0,.28,0,.33-.33.33h-2.9c-1.7,0-1.85,0-2.42-.95-1.18-1.85-4.74-7.3-4.74-7.3v7.92c0,.28,0,.33-.33.33h-2.14c-.28,0-.33-.05-.33-.33V458.19c0-.24,0-.33.33-.33h2.47c1.85,0,2.09-.05,2.75.9s4.84,7.5,4.84,7.5v-8.07c0-.24,0-.33.33-.33Zm63.34,0c.29,0,.33.09.33.33V468.3c0,.28,0,.33-.33.33h-2.89c-1.71,0-1.85,0-2.42-.95-1.19-1.85-4.75-7.31-4.75-7.31v7.93c0,.28,0,.33-.33.33h-2.13c-.29,0-.34-.05-.34-.33V458.19c0-.24.05-.33.34-.33h2.46c1.85,0,2.09-.05,2.75.9s4.84,7.5,4.84,7.5v-8.07c0-.24,0-.33.34-.33ZM1068.74,462c1.9.19,3.28.52,3.65,2.32,0,.14,0,.62,0,1.14a5.09,5.09,0,0,1-.09,1.14c-.33,1.71-1.62,2-3.61,2h-8c-.29,0-.33-.05-.33-.33v-1.71c0-.29,0-.33.33-.33h8.06c.34,0,.43-.1.48-.34v-.71c0-.19-.1-.47-.52-.52-.9-.05-3.56-.28-5.36-.47-2.33-.24-2.9-1.24-3-2.09a6.44,6.44,0,0,1,0-1,7.6,7.6,0,0,1,0-1c.33-1.52,1.47-2.23,3.46-2.23h7.73c.29,0,.38.05.38.28v1.76c0,.23-.09.33-.38.28H1064c-.33,0-.47.14-.52.48v.42c0,.24.14.43.47.48l4.75.43Zm13.71,0c1.9.19,3.28.52,3.66,2.32,0,.14,0,.62,0,1.14a5.09,5.09,0,0,1-.09,1.14c-.33,1.71-1.61,2-3.61,2h-8c-.28,0-.33-.05-.33-.33v-1.71c0-.29,0-.33.33-.33h8.07c.33,0,.42-.1.47-.34v-.71a.6.6,0,0,0-.52-.52c-.9-.05-3.56-.28-5.36-.47-2.33-.24-2.85-1.24-3-2.09a6.44,6.44,0,0,1-.05-1,7.6,7.6,0,0,1,.05-1c.33-1.52,1.47-2.23,3.46-2.23h7.74c.28,0,.38.05.38.28v1.76c0,.23-.1.33-.38.28h-7.59c-.34,0-.48.14-.53.48v.42c0,.24.1.43.48.48l4.74.43Z" transform="translate(-692.31 -421.71)"/><path class="cls-4" d="M1114.44,515.25c-1.51-3.38-1-3-4.26-3.11a9.62,9.62,0,0,0-2-.09,13,13,0,0,0-2,.09c-3.1,0-2.57-.18-3.63,2,0,0-5.33,12-7.64,17l-.09.18c-.44.89-.17.89.53.89h4.8a.63.63,0,0,0,.62-.36s.71-1.51,1.6-3.64h11.72c.88,2,1.51,3.55,1.51,3.64a.58.58,0,0,0,.62.36h5c.71,0,.89.09.62-.53-.89-2.13-6.66-14.56-7.46-16.42Zm-10.21,8.69c1.51-3.55,3-7,3-7.1a.55.55,0,0,1,.53-.26c.09-.09.36-.09.63-.09s.44,0,.53.09a.44.44,0,0,1,.44.35c.36,1,1.69,4,2.93,7Zm-63.91-12.07c.44,0,.53.18.53.53v19c0,.44-.09.63-.62.63h-4.62c-.53,0-.62-.1-.62-.63v-19c0-.35.09-.53.44-.53Zm-9.86.18c.53,0,.62.17.62.62v18.91c0,.53-.09.62-.62.62h-5.41c-3.2,0-3.46,0-4.53-1.77-2.22-3.46-8.88-13.67-8.88-13.67v14.82c0,.54-.09.62-.62.62h-4c-.54,0-.63-.08-.63-.62V512.67c0-.44.09-.62.63-.62h4.61c3.46,0,3.91-.09,5.15,1.69,1,1.59,9.06,14,9.06,14V512.67c0-.44.08-.62.62-.62Zm118.51,0c.54,0,.63.17.63.62v18.91c0,.53-.09.62-.63.62h-5.41c-3.2,0-3.46,0-4.53-1.77-2.22-3.47-8.88-13.67-8.88-13.67v14.82c0,.53-.08.62-.62.62h-4c-.53,0-.62-.09-.62-.62V512.67c0-.44.09-.62.62-.62h4.61c3.47,0,3.91-.09,5.15,1.69,1.07,1.59,9.06,14,9.06,14V512.67c0-.44.09-.62.62-.62Zm-88.32,7.72c3.55.36,6.12,1,6.83,4.35,0,.27.09,1.16.09,2.13a8.85,8.85,0,0,1-.18,2.13c-.62,3.2-3,3.82-6.74,3.82h-14.92c-.53,0-.62-.09-.62-.62v-3.2c0-.53.09-.62.62-.62h15.09c.62,0,.8-.18.89-.62v-1.33c-.09-.36-.18-.89-1-1-1.68-.09-6.65-.53-10-.89-4.35-.44-5.41-2.3-5.59-3.9a12.4,12.4,0,0,1-.09-1.87,14.81,14.81,0,0,1,.09-1.95c.62-2.84,2.75-4.17,6.48-4.17h14.47c.53,0,.71.09.71.53v3.29c0,.44-.18.62-.71.53h-14.2c-.63,0-.89.26-1,.88v.8c0,.45.26.8.89.89,1.69.18,6.92.62,8.88.8Zm25.65,0c3.55.36,6.13,1,6.84,4.35,0,.27.09,1.16.09,2.13a8.85,8.85,0,0,1-.18,2.13c-.62,3.2-3,3.82-6.75,3.82h-14.91c-.54,0-.63-.09-.63-.62v-3.2c0-.53.09-.62.63-.62h15.09c.62,0,.79-.18.89-.62v-1.33a1.13,1.13,0,0,0-1-1c-1.69-.09-6.66-.53-10-.89-4.35-.44-5.33-2.3-5.6-3.9a13.94,13.94,0,0,1-.08-1.87,16.65,16.65,0,0,1,.08-1.95c.63-2.84,2.76-4.17,6.48-4.17h14.48c.53,0,.71.09.71.53v3.29c0,.44-.18.62-.71.53h-14.21c-.62,0-.88.26-1,.88v.8c0,.45.18.8.89.89,1.69.18,6.93.62,8.88.8Z" transform="translate(-692.31 -421.71)"/><path class="cls-4" d="M813.82,432.94c7.92,5.06,16.89,14,16,25.85-1.09,11-9.87,18.69-17.72,23.32-22.92,12.79-55.1,13.18-78.76,2-8-3.88-17-10.56-20.34-20.61-2.57-8.25.57-16.85,5.84-22.57,11-11.7,25.08-15.72,39.55-18a92,92,0,0,1,46.28,5.37A69.62,69.62,0,0,1,813.82,432.94Zm26,73.63v26.57h-4.94V525.5H823.57v7.64h-5V512.3c0-3.68,1.28-5.74,5-5.74H839.8Z" transform="translate(-692.31 -421.71)"/><path class="cls-1" d="M834.86,511.44h-9.29c-1.56.11-2,.56-2,2.78v6.09h11.28v-8.87Z" transform="translate(-692.31 -421.71)"/><path class="cls-4" d="M813.68,512.3v14.38c0,4.58-2.2,6.46-4.95,6.46h-15.6V506.57h15.6C813,506.56,813.68,509.69,813.68,512.3Z" transform="translate(-692.31 -421.71)"/><path class="cls-1" d="M808.68,513.9c0-1.45-.76-2.46-2.09-2.46h-8.51v16.61h8.51c1.94-.12,2.09-1.47,2.09-2.55Z" transform="translate(-692.31 -421.71)"/><path class="cls-4" d="M692.31,506.56h4.94V517h11.07V506.56h4.94v26.58h-4.94V522.29H697.25v10.85h-4.94Zm29.43,0,6.2,10.86,6.13-10.86h6l-9.67,17v9.59h-4.94v-9.59l-9.73-17Zm46.1,0h15.94c2.27,0,4.47.37,4.41,5.74v20.84h-5V514.21c0-2.29-.24-2.77-1.77-2.77h-8.68v21.7h-4.95Zm76.91,0h4.94v26.57h-4.94Zm-102.2,26.57h15.94c3.17,0,4.47-1.07,4.4-6.42V506.56H758v19c0,2.28-.24,2.55-1.78,2.55h-8.68V506.56h-5v26.58Z" transform="translate(-692.31 -421.71)"/><path class="cls-1" d="M783.28,465.17c.9,5.41-1.53,9.9-3.55,14.27-2.25,4.07-5.94,7.56-10.39,7a91.86,91.86,0,0,1-28.79-5.15,1.82,1.82,0,0,1-1-.88,1.57,1.57,0,0,1,.45-1.57c8.26-7.81,18.09-11.44,27.81-15.24,3.62-1.22,7.48-2.53,11.55-1.92A5.19,5.19,0,0,1,783.28,465.17ZM817.33,442c4.64,4.46,8.83,10.53,7.4,17.86-2.32,10.83-12.41,16.6-20.44,20.26-4.38,1.7-8.79,3.45-13.57,4-.3,0-.79.05-.86-.47L790,483c6.8-9,12-19,16.48-29.17,2.1-4.58,4-9.3,5.83-13.93a2.07,2.07,0,0,1,.82-.66C814.79,439.45,816,441,817.33,442ZM752.1,430.49l-.15.66c-9.83,13.05-16.29,28.21-22.42,43.27-1.2,1.31-2.36-.44-3.44-1-5.46-4.19-10.39-11-9-19,2.28-10.48,11.51-16.07,19.21-19.87A64.77,64.77,0,0,1,750.65,430C751.17,430,751.84,429.93,752.1,430.49Zm48.78,2.1c.57.35,1.24.48,1.57,1.14s-.3,1.22-.63,1.7c-7.74,7.07-16.6,11-25.65,14.45-4.59,1.31-9.23,3.67-14.35,2.36a5,5,0,0,1-3-2.62c-1.27-4.11.45-8.39,1.95-12,2-4.49,5.49-9.78,10.35-9.87A92.84,92.84,0,0,1,800.88,432.59Z" transform="translate(-692.31 -421.71)"/></svg>